<svg width="1498" height="523" viewBox="0 0 1498 523" fill="none" xmlns="http://www.w3.org/2000/svg">
<path d="M205.839 116H11C4.92487 116 0 120.925 0 127V249.47C0 255.545 4.92487 260.47 11 260.47H83.2477C86.1632 260.47 88.9594 259.313 91.022 257.252L213.613 134.782C220.548 127.854 215.642 116 205.839 116Z" fill="white"/>
<path d="M234.798 249.837V127C234.798 120.925 239.723 116 245.798 116H370C376.075 116 381 120.925 381 127V249.5C381 255.563 376.093 260.483 370.03 260.5L245.828 260.837C239.741 260.854 234.798 255.924 234.798 249.837Z" fill="white"/>
<path d="M171.731 455.244L290.188 336.904C294.484 332.612 294.489 325.649 290.198 321.351L171.741 202.687C164.814 195.748 152.956 200.654 152.956 210.458V447.462C152.956 457.26 164.799 462.169 171.731 455.244Z" fill="white"/>
<path d="M561.25 385V196H491.95V159.6H677.45V196H608.5V385H561.25ZM742.804 388.5C714.104 388.5 691.354 381.383 674.554 367.15C657.754 352.683 649.354 330.867 649.354 301.7C649.354 275.333 656.354 254.45 670.354 239.05C684.588 223.417 705.704 215.6 733.704 215.6C759.371 215.6 778.971 222.367 792.504 235.9C806.271 249.2 813.154 266.7 813.154 288.4V318.5H693.104C695.671 331.8 701.738 340.9 711.304 345.8C721.104 350.7 734.871 353.15 752.604 353.15C761.471 353.15 770.454 352.333 779.554 350.7C788.888 349.067 796.821 346.967 803.354 344.4V378C795.654 381.5 786.671 384.067 776.404 385.7C766.138 387.567 754.938 388.5 742.804 388.5ZM693.104 289.45H771.854V280.35C771.854 270.783 769.054 263.317 763.454 257.95C757.854 252.35 748.404 249.55 735.104 249.55C719.471 249.55 708.504 252.7 702.204 259C696.138 265.3 693.104 275.45 693.104 289.45ZM832.052 385V219.1H875.802L877.902 236.25C885.368 231.583 894.585 227.383 905.552 223.65C916.752 219.683 927.718 217 938.452 215.6V251.3C932.152 252.233 925.268 253.633 917.802 255.5C910.335 257.367 903.218 259.467 896.452 261.8C889.685 264.133 883.968 266.583 879.302 269.15V385H832.052ZM948.618 385V219.1H992.368L994.118 235.2C1002.05 229.133 1010.68 224.35 1020.02 220.85C1029.58 217.35 1039.85 215.6 1050.82 215.6C1062.48 215.6 1071.47 217.35 1077.77 220.85C1084.3 224.35 1089.32 229.367 1092.82 235.9C1100.52 229.833 1109.27 224.933 1119.07 221.2C1129.1 217.467 1140.88 215.6 1154.42 215.6C1173.55 215.6 1187.67 220.617 1196.77 230.65C1205.87 240.45 1210.42 255.5 1210.42 275.8V385H1163.87V281.05C1163.87 270.083 1161.53 262.267 1156.87 257.6C1152.2 252.7 1144.73 250.25 1134.47 250.25C1120.47 250.25 1108.8 255.267 1099.47 265.3C1100.63 269.267 1101.22 274.05 1101.22 279.65V385H1057.12V281.05C1057.12 270.783 1055.37 263.083 1051.87 257.95C1048.37 252.817 1041.6 250.25 1031.57 250.25C1024.57 250.25 1017.92 252.117 1011.62 255.85C1005.55 259.35 1000.07 263.433 995.168 268.1V385H948.618ZM1281.26 388.5C1265.16 388.5 1253.37 384.767 1245.91 377.3C1238.67 369.833 1235.06 357.933 1235.06 341.6V149.1H1282.31V337.75C1282.31 343.583 1283.47 347.667 1285.81 350C1288.14 352.1 1291.52 353.15 1295.96 353.15C1302.02 353.15 1307.51 352.333 1312.41 350.7V383.25C1303.54 386.75 1293.16 388.5 1281.26 388.5ZM1345.81 446.6C1338.57 446.6 1332.16 446.133 1326.56 445.2C1320.96 444.5 1315.47 443.1 1310.11 441V407.75C1314.07 409.15 1317.69 410.083 1320.96 410.55C1324.46 411.017 1327.96 411.25 1331.46 411.25C1341.02 411.25 1348.37 409.033 1353.51 404.6C1358.87 400.167 1364.24 392.7 1369.61 382.2L1295.41 219.1H1344.76L1393.41 331.8L1441.71 219.1H1490.71L1425.26 373.45C1419.19 387.917 1412.54 400.633 1405.31 411.6C1398.31 422.8 1390.02 431.433 1380.46 437.5C1370.89 443.567 1359.34 446.6 1345.81 446.6Z" fill="white"/>
</svg>
