<svg width="381" height="456" viewBox="0 0 381 456" fill="none" xmlns="http://www.w3.org/2000/svg">
<path d="M205.839 0H11C4.92487 0 0 4.92487 0 11V133.47C0 139.545 4.92487 144.47 11 144.47H83.2477C86.1632 144.47 88.9594 143.313 91.022 141.252L213.613 18.782C220.548 11.854 215.642 0 205.839 0Z" fill="currentColor"/>
<path d="M234.798 133.837V11C234.798 4.92487 239.723 0 245.798 0H370C376.075 0 381 4.92487 381 11V133.5C381 139.563 376.093 144.483 370.03 144.5L245.828 144.837C239.741 144.854 234.798 139.924 234.798 133.837Z" fill="currentColor"/>
<path d="M171.731 339.244L290.188 220.904C294.484 216.612 294.489 209.649 290.198 205.351L171.741 86.687C164.814 79.748 152.956 84.654 152.956 94.458V331.462C152.956 341.26 164.799 346.169 171.731 339.244Z" fill="currentColor"/>
</svg>
